<svg width="24" height="14" viewBox="0 0 24 14" fill="none" xmlns="http://www.w3.org/2000/svg">
<g clip-path="url(#clip0_1765_2508)">
<path d="M14.6 11H5.5V7.9H4.5V11H1.5C1.8 10.7 2 10.2 2 9.7C1.9 9 1.6 8.4 1 8.1V7.7C1.6 7.3 1.9 6.7 1.9 6C1.9 5.3 1.6 4.7 1 4.3V3.9C1.6 3.6 1.9 3 1.9 2.3C1.9 1.8 1.7 1.4 1.4 1H4.4V1.7H5.4V1H18.4C18.1 1.3 17.9 1.8 17.9 2.3C17.9 3 18.2 3.6 18.8 3.9C18.9 3.9 19.1 3.9 19.2 3.9C19.4 3.9 19.6 3.9 19.9 4V3.2C19.4 3.2 19 2.8 19 2.3C19 1.8 19.4 1.4 19.9 1.4V0H0V1.3C0.5 1.3 0.9 1.7 0.9 2.2C0.9 2.7 0.5 3.2 0 3.2V5.1C0.5 5.1 0.9 5.5 0.9 6C0.9 6.5 0.5 6.9 0 6.9V8.8C0.5 8.8 0.9 9.2 0.9 9.7C0.9 10.2 0.5 10.7 0 10.7V12H15.2C15 11.7 14.8 11.4 14.6 11Z" fill="#F8991D"/>
<path d="M5.5 3.09998H4.5V6.49998H5.5V3.09998Z" fill="#F8991D"/>
<path d="M19.3002 4.79999C17.0002 4.79999 15.2002 6.69999 15.2002 8.89999C15.2002 11.2 17.1002 13 19.3002 13C21.5002 13 23.4002 11.1 23.4002 8.89999C23.5002 6.69999 21.6002 4.79999 19.3002 4.79999ZM18.7002 11.1L16.4002 8.79999L17.1002 8.09999L18.7002 9.69999L21.6002 6.79999L22.3002 7.49999L18.7002 11.1Z" fill="#F8991D"/>
</g>
<defs>
<clipPath id="clip0_1765_2508">
<rect width="23.5" height="13.1" fill="white"/>
</clipPath>
</defs>
</svg>
