<svg width="20" height="12" viewBox="0 0 20 12" fill="none" xmlns="http://www.w3.org/2000/svg">
<path fill-rule="evenodd" clip-rule="evenodd" d="M18.0604 6C18.0604 6.70947 18.4364 7.32519 19 7.66267V8.08733C18.4364 8.42481 18.0604 9.04053 18.0604 9.75C18.0604 10.228 18.2311 10.6635 18.5149 11H5.5V7.9H4.5V11H1.48512C1.7689 10.6635 1.9396 10.228 1.9396 9.75C1.9396 9.04053 1.56363 8.42482 1 8.08733V7.66267C1.56363 7.32519 1.9396 6.70947 1.9396 6C1.9396 5.29053 1.56363 4.67481 1 4.33733V3.91267C1.56363 3.57519 1.9396 2.95947 1.9396 2.25C1.9396 1.77196 1.7689 1.33648 1.48512 1H4.5V1.7H5.5V1H18.5149C18.2311 1.33648 18.0604 1.77196 18.0604 2.25C18.0604 2.95947 18.4364 3.57519 19 3.91267V4.33733C18.4364 4.67481 18.0604 5.29053 18.0604 6ZM5.5 0H20V1.3125C19.4765 1.3125 19.0604 1.72768 19.0604 2.25C19.0604 2.77232 19.4765 3.1875 20 3.1875V5.0625C19.4765 5.0625 19.0604 5.47768 19.0604 6C19.0604 6.52232 19.4765 6.9375 20 6.9375V8.8125C19.4765 8.8125 19.0604 9.22768 19.0604 9.75C19.0604 10.2723 19.4765 10.6875 20 10.6875V12H0V10.6875C0.52349 10.6875 0.939597 10.2723 0.939597 9.75C0.939597 9.22768 0.52349 8.8125 0 8.8125V6.9375C0.52349 6.9375 0.939597 6.52232 0.939597 6C0.939597 5.47768 0.52349 5.0625 0 5.0625V3.1875C0.52349 3.1875 0.939597 2.77232 0.939597 2.25C0.939597 1.72768 0.52349 1.3125 0 1.3125V0H4.5H5.5ZM5.5 6.5L5.5 3.1H4.5L4.5 6.5H5.5Z" fill="#F8991D"/>
</svg>
