<svg xmlns="http://www.w3.org/2000/svg" viewBox="0 0 1685.39 355.92"><defs><style>.cls-1{fill:#fff;}.cls-2{fill:#f8991d;}</style></defs><g id="Layer_2" data-name="Layer 2"><g id="Layer_1-2" data-name="Layer 1"><path class="cls-1" d="M652.28,259.12V162.84c0-22.15-3.6-38-10.68-47.09-6.87-8.83-18.47-13.3-34.48-13.3-9.3,0-17.57,1.91-24.58,5.68a42.24,42.24,0,0,0-16.62,16.19,51.19,51.19,0,0,0-5.29,15.15c-1.12,5.82-1.68,16.3-1.68,31.15v88.5H530.68V157.76c0-19.13-3.82-33.33-11.37-42.21-7.4-8.69-19.08-13.1-34.74-13.1-9.52,0-17.95,1.91-25.06,5.69a42,42,0,0,0-16.77,16.18,46.75,46.75,0,0,0-5.36,15.11c-1.07,5.86-1.61,16.35-1.61,31.19v88.5H406.55V77.36h29.22V92a67.77,67.77,0,0,1,18.57-12,80.59,80.59,0,0,1,32.14-6.17,82.42,82.42,0,0,1,37.81,8.73,65.47,65.47,0,0,1,23.48,19.47,73.57,73.57,0,0,1,24.66-20,82.13,82.13,0,0,1,36.91-8.23c24.77,0,43.14,7.66,54.6,22.77,11.23,14.8,16.92,38.63,16.92,70.81v91.68Z"/><path class="cls-1" d="M785,263.72c-26.19,0-45.45-7.3-57.22-21.71-11.59-14.19-17.47-37.73-17.47-70V77.36h29.22v96.28c0,22.88,3.64,39.15,10.83,48.35,7,8.94,18.84,13.47,35.27,13.47,9.42,0,17.77-1.92,24.82-5.69a44,44,0,0,0,17-16.39,47.21,47.21,0,0,0,5.27-14.93c1.11-6,1.68-16.6,1.68-31.64V77.36H864V259.12H834.46V245.8a61.79,61.79,0,0,1-17.67,12.06C808,261.75,797.32,263.72,785,263.72Z"/><path class="cls-1" d="M990.05,263.72a85.11,85.11,0,0,1-37-8,90,90,0,0,1-24.33-17.4v20.84H899.48V20.84H928.7V101a91.83,91.83,0,0,1,25.83-19c11.65-5.61,24.83-8.45,39.17-8.45,25.44,0,47.27,9.28,64.88,27.6s26.47,40.8,26.47,66.93c0,27-9.1,49.91-27.06,68.15S1017.16,263.72,990.05,263.72Zm1.11-162.23c-17.42,0-31.85,6.48-44.12,19.81S928.7,150.9,928.7,170c0,17.59,6.32,33.13,18.78,46.19s26.84,19.6,42.88,19.6c17.88,0,32.69-6.43,45.27-19.68s18.78-29.58,18.78-49c0-18.31-6.28-34-18.66-46.63S1008.38,101.49,991.16,101.49Z"/><path class="cls-1" d="M1193.65,263.72c-26.49,0-48.88-9.2-66.53-27.35s-26.57-40.78-26.57-67.34c0-27,9.13-49.9,27.15-68.07s40.85-27.41,67.85-27.41a87.49,87.49,0,0,1,38.55,8.53,77.13,77.13,0,0,1,22.8,16.81V77.36H1286V259.12H1256.9V238a77.36,77.36,0,0,1-23.21,16.78A91.78,91.78,0,0,1,1193.65,263.72Zm1.27-162.23c-17.88,0-32.68,6.42-45.27,19.61s-18.78,29.51-18.78,48.88c0,18.41,6.29,34.16,18.67,46.79s27.41,19,44.75,19c16.89,0,31.23-6.56,43.81-20.05s18.8-29.73,18.8-48.59c0-17.48-6.34-33-18.85-46S1211.3,101.49,1194.92,101.49Z"/><path class="cls-1" d="M1446.69,259.12V166.49c0-24.36-3.59-41.39-10.68-50.6-6.87-8.92-18.79-13.44-35.42-13.44-9.53,0-18,1.91-25.07,5.69a42,42,0,0,0-16.77,16.18,47,47,0,0,0-5.36,15.11c-1.07,5.86-1.61,16.35-1.61,31.19v88.5h-29.22V20.84h29.22V92.32A65.22,65.22,0,0,1,1370,80.21a77.86,77.86,0,0,1,31.84-6.35c25.58,0,44.57,7.53,56.46,22.38,11.68,14.61,17.6,38.35,17.6,70.57v92.31Z"/><path class="cls-1" d="M1593.08,263.72c-26.49,0-48.88-9.2-66.53-27.35S1500,195.59,1500,169c0-27,9.13-49.9,27.15-68.07S1568,73.55,1595,73.55a87.49,87.49,0,0,1,38.55,8.53,77.13,77.13,0,0,1,22.8,16.81V77.36h29.06V259.12h-29.06V238a77.36,77.36,0,0,1-23.21,16.78A91.75,91.75,0,0,1,1593.08,263.72Zm1.27-162.23c-17.87,0-32.68,6.42-45.27,19.61s-18.77,29.51-18.77,48.88c0,18.41,6.28,34.16,18.66,46.79s27.41,19,44.75,19c16.89,0,31.23-6.56,43.81-20.05s18.8-29.73,18.8-48.59c0-17.48-6.34-33-18.85-46S1610.73,101.49,1594.35,101.49Z"/><circle class="cls-1" cx="21.23" cy="334.68" r="21.23"/><circle class="cls-1" cx="206.33" cy="334.68" r="21.23"/><path class="cls-1" d="M203.73,296.52H25.93a9.39,9.39,0,0,1,0-18.78h177.8A76.7,76.7,0,0,0,275.33,228L337,62A95.57,95.57,0,0,1,426.22,0h6.43a9.4,9.4,0,0,1,0,18.79h-6.43a76.69,76.69,0,0,0-71.6,49.77L293,234.51A95.56,95.56,0,0,1,203.73,296.52Z"/><path class="cls-1" d="M140.13,229c-2.59,0-3.91-2.11-2.95-4.7a7.51,7.51,0,0,1,6.44-4.7h115l13.64-36.7c-19.59-.7-55.39-1.43-63.47-1.43-11,0-45.6.79-50.16,2a5.71,5.71,0,0,1-1.44.19c-2,0-3.43-1.24-3.34-3.2.11-2.42,2.24-5,4.95-5.86,7.06-2.23,53-2.54,53.48-2.54,6.83,0,43,.71,63.47,1.44L289.29,137c-18.84-1.49-49.2-3-63-3-13,0-41.32,1.25-50.83,4.25a5.53,5.53,0,0,1-1.69.28,3,3,0,0,1-3.26-3.11c0-2.44,2.3-5.14,5.07-6,12.62-4,46-4.81,54.2-4.81,14.1,0,43.87,1.48,63,3L306.3,91.18c-18.13-2.27-40.56-4.74-62.47-4.74-33.24,0-57.8,5.73-73,17a46.76,46.76,0,0,0-16.8,23c-3.77,10.93-8,19.5-12.87,26.2-9.39,12.81-22.64,20.77-34.57,20.77a25.3,25.3,0,0,1-5.33-.55L97.1,172l2.44-4.51c8.66-16,10.17-27.2,12.27-42.69l0-.41c.9-6.77,1.92-14.45,3.67-23.31,3.63-18.32,36.08-43.85,55.1-57.44,1.27-.91,2.62-1.81,3.92-2.72H138.88A46.15,46.15,0,0,0,95.62,71L40.89,218.24a30.29,30.29,0,0,0,28.39,40.84H211.83A46.16,46.16,0,0,0,255.08,229h-115Z"/><path class="cls-2" d="M247.32,77c22,0,44.32,2.42,62.5,4.68h0a30.29,30.29,0,0,0-28.39-40.84H188.55c-4.74,3.11-9.41,6.26-13.88,9.46-28.42,20.3-47.31,39.12-49.28,49.09-1.7,8.57-2.7,16.1-3.58,22.74l-.06.43c-2,14.4-3.53,26.07-10.94,41.38,7.78-.31,16.22-5.7,22.7-14.54,4.07-5.57,7.68-13,11-22.77a61.58,61.58,0,0,1,22-29.76C184.52,83.54,210.94,77,247.32,77Z"/></g></g></svg>