<?xml version="1.0" encoding="utf-8"?>
<!-- Generator: Adobe Illustrator 22.0.1, SVG Export Plug-In . SVG Version: 6.00 Build 0)  -->
<svg version="1.1" id="Layer_1" xmlns="http://www.w3.org/2000/svg" xmlns:xlink="http://www.w3.org/1999/xlink" x="0px" y="0px"
	 viewBox="0 0 50 50" style="enable-background:new 0 0 50 50;" xml:space="preserve">
<style type="text/css">
	.st0{fill:#F32124;}
	.st1{fill:#FFFFFF;}
</style>
<path class="st0" d="M25,0C11.2,0,0,11.2,0,25s11.2,25,25,25s25-11.2,25-25S38.8,0,25,0z"/>
<g>
	<path class="st1" d="M26.8,30.1h-3.6c-0.6,0-1-0.4-1-1V9.8c0-0.6,0.4-1,1-1h3.6c0.6,0,1,0.4,1,1v19.3
		C27.8,29.6,27.3,30.1,26.8,30.1z"/>
	<path class="st1" d="M26.8,41.2h-3.6c-0.6,0-1-0.4-1-1v-3.6c0-0.6,0.4-1,1-1h3.6c0.6,0,1,0.4,1,1v3.6
		C27.8,40.8,27.3,41.2,26.8,41.2z"/>
</g>
</svg>
