<svg width="17" height="17" viewBox="0 0 17 17" fill="none" xmlns="http://www.w3.org/2000/svg">
<path d="M8.24011 0.220459C9.44822 0.221157 10.6405 0.495465 11.7274 1.0228C12.8144 1.55013 13.7678 2.31679 14.5161 3.26525C15.2644 4.2137 15.7882 5.31932 16.0481 6.49914C16.3081 7.67895 16.2974 8.90232 16.017 10.0774C15.7366 11.2525 15.1936 12.3489 14.4289 13.2842C13.6642 14.2195 12.6976 14.9694 11.6017 15.4778C10.5057 15.9861 9.30888 16.2396 8.10094 16.2193C6.893 16.199 5.70535 15.9054 4.62711 15.3605L4.50611 15.2955L0.861112 16.2055C0.790963 16.2231 0.717822 16.2253 0.646737 16.2119C0.575651 16.1986 0.508314 16.1699 0.449371 16.128C0.390428 16.0861 0.341283 16.0319 0.305328 15.9691C0.269373 15.9063 0.247464 15.8365 0.241112 15.7645V15.6825L0.255112 15.5995L1.16511 11.9555L1.10211 11.8355C0.644497 10.9346 0.362802 9.95479 0.272112 8.94846L0.247112 8.56646L0.240112 8.22046C0.240112 6.09873 1.08297 4.0639 2.58326 2.5636C4.08355 1.06331 6.11838 0.220459 8.24011 0.220459V0.220459ZM8.24011 1.22046C7.01857 1.22026 5.81825 1.53972 4.75842 2.1471C3.69858 2.75448 2.81614 3.62862 2.19878 4.68267C1.58141 5.73672 1.25062 6.93397 1.23928 8.15545C1.22794 9.37694 1.53643 10.5801 2.13411 11.6455C2.18051 11.7283 2.20237 11.8226 2.19711 11.9175L2.18311 12.0115L1.42711 15.0325L4.45111 14.2785C4.51259 14.2633 4.57638 14.2599 4.63911 14.2685L4.73011 14.2895L4.81711 14.3285C5.75046 14.851 6.79113 15.1526 7.85922 15.2103C8.92732 15.2679 9.99442 15.08 10.9786 14.661C11.9627 14.242 12.8378 13.6031 13.5365 12.7932C14.2353 11.9833 14.7391 11.0241 15.0094 9.98911C15.2797 8.95417 15.3091 7.87106 15.0956 6.82295C14.882 5.77483 14.4311 4.7896 13.7775 3.9429C13.1239 3.0962 12.2849 2.41056 11.325 1.93862C10.3651 1.46668 9.30976 1.22101 8.24011 1.22046V1.22046ZM8.74011 9.22046C8.86506 9.22023 8.98556 9.26679 9.0779 9.35097C9.17023 9.43515 9.2277 9.55085 9.23899 9.67528C9.25028 9.79972 9.21457 9.92387 9.13889 10.0233C9.06322 10.1227 8.95306 10.1902 8.83011 10.2125L8.74011 10.2205H5.74011C5.61517 10.2207 5.49466 10.1741 5.40233 10.09C5.31 10.0058 5.25253 9.89007 5.24124 9.76564C5.22995 9.6412 5.26566 9.51705 5.34133 9.41763C5.41701 9.31821 5.52716 9.25072 5.65011 9.22846L5.74011 9.22046H8.74011ZM10.7401 6.22046C10.8651 6.22023 10.9856 6.26679 11.0779 6.35097C11.1702 6.43515 11.2277 6.55085 11.239 6.67528C11.2503 6.79972 11.2146 6.92387 11.1389 7.02329C11.0632 7.12271 10.9531 7.1902 10.8301 7.21246L10.7401 7.22046H5.74011C5.61517 7.22069 5.49466 7.17413 5.40233 7.08995C5.31 7.00577 5.25253 6.89007 5.24124 6.76564C5.22995 6.6412 5.26566 6.51705 5.34133 6.41763C5.41701 6.31821 5.52716 6.25072 5.65011 6.22846L5.74011 6.22046H10.7401Z" fill="#F8991D"/>
</svg>
