<svg width="19" height="18" viewBox="0 0 19 18" fill="none" xmlns="http://www.w3.org/2000/svg">
<path d="M3.52688 0.42C3.63837 0.288282 3.77677 0.182533 3.93257 0.110029C4.08836 0.0375259 4.25785 -1.14008e-05 4.42938 2.59738e-09H14.5706C14.7421 -1.14008e-05 14.9116 0.0375259 15.0674 0.110029C15.2232 0.182533 15.3616 0.288282 15.4731 0.42L18.5713 4.0728C18.8479 4.399 19 4.81441 19 5.244V5.55C19.0001 6.14397 18.8165 6.72312 18.4749 7.20651C18.1333 7.68989 17.6508 8.05335 17.0949 8.24609C16.5389 8.43883 15.9372 8.45122 15.3739 8.28152C14.8106 8.11183 14.3139 7.76853 13.9531 7.2996C13.6897 7.64252 13.352 7.91997 12.9661 8.11071C12.5802 8.30144 12.1562 8.4004 11.7266 8.4C11.2969 8.40049 10.8729 8.30157 10.487 8.11083C10.101 7.92009 9.7634 7.64259 9.5 7.2996C9.2366 7.64259 8.89899 7.92009 8.51305 8.11083C8.1271 8.30157 7.70307 8.40049 7.27344 8.4C6.84381 8.40049 6.41977 8.30157 6.03383 8.11083C5.64788 7.92009 5.31027 7.64259 5.04688 7.2996C4.6861 7.76853 4.18936 8.11183 3.62608 8.28152C3.06279 8.45122 2.46111 8.43883 1.90514 8.24609C1.34916 8.05335 0.866665 7.68989 0.525091 7.20651C0.183518 6.72312 -6.48358e-05 6.14397 1.71766e-08 5.55V5.244C1.49714e-05 4.81441 0.152067 4.399 0.428688 4.0728L3.52806 0.4188L3.52688 0.42ZM5.64062 5.55C5.64063 5.98761 5.81265 6.40729 6.11886 6.71673C6.42508 7.02616 6.84039 7.2 7.27344 7.2C7.70649 7.2 8.1218 7.02616 8.42801 6.71673C8.73422 6.40729 8.90625 5.98761 8.90625 5.55C8.90625 5.39087 8.96881 5.23826 9.08016 5.12574C9.19151 5.01321 9.34253 4.95 9.5 4.95C9.65747 4.95 9.8085 5.01321 9.91985 5.12574C10.0312 5.23826 10.0938 5.39087 10.0938 5.55C10.0938 5.98761 10.2658 6.40729 10.572 6.71673C10.8782 7.02616 11.2935 7.2 11.7266 7.2C12.1596 7.2 12.5749 7.02616 12.8811 6.71673C13.1873 6.40729 13.3594 5.98761 13.3594 5.55C13.3594 5.39087 13.4219 5.23826 13.5333 5.12574C13.6446 5.01321 13.7957 4.95 13.9531 4.95C14.1106 4.95 14.2616 5.01321 14.373 5.12574C14.4843 5.23826 14.5469 5.39087 14.5469 5.55C14.5469 5.98761 14.7189 6.40729 15.0251 6.71673C15.3313 7.02616 15.7466 7.2 16.1797 7.2C16.6127 7.2 17.028 7.02616 17.3343 6.71673C17.6405 6.40729 17.8125 5.98761 17.8125 5.55V5.244C17.8125 5.10099 17.762 4.96269 17.67 4.854L14.5706 1.2H4.42938L1.33 4.854C1.23802 4.96269 1.18749 5.10099 1.1875 5.244V5.55C1.1875 5.98761 1.35953 6.40729 1.66574 6.71673C1.97195 7.02616 2.38726 7.2 2.82031 7.2C3.25336 7.2 3.66867 7.02616 3.97489 6.71673C4.2811 6.40729 4.45312 5.98761 4.45312 5.55C4.45312 5.39087 4.51568 5.23826 4.62703 5.12574C4.73838 5.01321 4.8894 4.95 5.04688 4.95C5.20435 4.95 5.35537 5.01321 5.46672 5.12574C5.57807 5.23826 5.64062 5.39087 5.64062 5.55V5.55ZM1.78125 9C1.93872 9 2.08974 9.06321 2.20109 9.17574C2.31244 9.28826 2.375 9.44087 2.375 9.6V16.8H16.625V9.6C16.625 9.44087 16.6876 9.28826 16.7989 9.17574C16.9103 9.06321 17.0613 9 17.2188 9C17.3762 9 17.5272 9.06321 17.6386 9.17574C17.7499 9.28826 17.8125 9.44087 17.8125 9.6V16.8H18.4062C18.5637 16.8 18.7147 16.8632 18.8261 16.9757C18.9374 17.0883 19 17.2409 19 17.4C19 17.5591 18.9374 17.7117 18.8261 17.8243C18.7147 17.9368 18.5637 18 18.4062 18H0.59375C0.436278 18 0.285255 17.9368 0.173905 17.8243C0.0625557 17.7117 1.71766e-08 17.5591 1.71766e-08 17.4C1.71766e-08 17.2409 0.0625557 17.0883 0.173905 16.9757C0.285255 16.8632 0.436278 16.8 0.59375 16.8H1.1875V9.6C1.1875 9.44087 1.25006 9.28826 1.36141 9.17574C1.47276 9.06321 1.62378 9 1.78125 9V9ZM4.15625 9.6C4.31372 9.6 4.46474 9.66321 4.57609 9.77574C4.68744 9.88826 4.75 10.0409 4.75 10.2V14.4H14.25V10.2C14.25 10.0409 14.3126 9.88826 14.4239 9.77574C14.5353 9.66321 14.6863 9.6 14.8438 9.6C15.0012 9.6 15.1522 9.66321 15.2636 9.77574C15.3749 9.88826 15.4375 10.0409 15.4375 10.2V14.4C15.4375 14.7183 15.3124 15.0235 15.0897 15.2485C14.867 15.4736 14.5649 15.6 14.25 15.6H4.75C4.43506 15.6 4.13301 15.4736 3.91031 15.2485C3.68761 15.0235 3.5625 14.7183 3.5625 14.4V10.2C3.5625 10.0409 3.62506 9.88826 3.73641 9.77574C3.84776 9.66321 3.99878 9.6 4.15625 9.6Z" fill="#F8991D"/>
</svg>
