<svg width="17" height="16" viewBox="0 0 17 16" fill="none" xmlns="http://www.w3.org/2000/svg">
<path fill-rule="evenodd" clip-rule="evenodd" d="M7.52564 0.416425C7.76816 -0.130903 8.54125 -0.141005 8.79799 0.399792L10.916 4.86118L15.858 5.41883C16.4557 5.48629 16.6956 6.22655 16.251 6.63178L12.5859 9.97223L13.571 14.6965C13.6926 15.2798 13.0763 15.7386 12.5524 15.4549L8.16331 13.0784L3.93806 15.4425C3.41412 15.7356 2.78845 15.2764 2.911 14.6887L3.89447 9.97223L0.229341 6.63178C-0.215277 6.22655 0.0245925 5.48629 0.622379 5.41883L5.55576 4.86214L7.52564 0.416425ZM8.17503 1.41932L6.40033 5.42454C6.29961 5.65184 6.08589 5.80867 5.83884 5.83655L1.39192 6.33834L4.69463 9.34849C4.87763 9.51528 4.95891 9.76634 4.90836 10.0087L4.02434 14.2483L7.81915 12.1251C8.02851 12.008 8.28328 12.0062 8.49424 12.1204L12.4601 14.2677L11.572 10.0087C11.5214 9.76634 11.6027 9.51528 11.7857 9.34849L15.0884 6.33834L10.6381 5.83616C10.3975 5.80901 10.188 5.65949 10.0842 5.44078L8.17503 1.41932Z" fill="#F8991D"/>
</svg>
